<svg xmlns="http://www.w3.org/2000/svg" width="3020.0px" height="1200.0px" viewBox="0.0 -140.0 3020.0 1200.0">
<g>
<line stroke="#000000" x1="45.0" y1="536.0" x2="245.0" y2="730.0"/>
<line stroke="#000000" x1="245.0" y1="730.0" x2="347.0" y2="635.0"/>
<line stroke="#000000" x1="260.0" y1="555.0" x2="347.0" y2="635.0"/>
<line stroke="#000000" x1="260.0" y1="555.0" x2="415.0" y2="395.0"/>
<line stroke="#000000" x1="305.0" y1="285.0" x2="415.0" y2="395.0"/>
<line stroke="#000000" x1="305.0" y1="285.0" x2="45.0" y2="536.0"/>
<line stroke="#000000" x1="740.0" y1="1195.0" x2="515.0" y2="1060.0"/>
<line stroke="#000000" x1="610.0" y1="813.0" x2="515.0" y2="1060.0"/>
<line stroke="#000000" x1="610.0" y1="813.0" x2="880.0" y2="776.0"/>
<line stroke="#000000" x1="940.0" y1="1060.0" x2="880.0" y2="776.0"/>
<line stroke="#000000" x1="850.0" y1="515.0" x2="1130.0" y2="550.0"/>
<line stroke="#000000" x1="1009.0" y1="210.0" x2="1130.0" y2="550.0"/>
<line stroke="#000000" x1="1009.0" y1="210.0" x2="850.0" y2="515.0"/>
<line stroke="#000000" x1="1535.0" y1="487.0" x2="1715.0" y2="685.0"/>
<line stroke="#000000" x1="1935.0" y1="510.0" x2="1715.0" y2="685.0"/>
<line stroke="#000000" x1="1935.0" y1="510.0" x2="1900.0" y2="265.0"/>
<line stroke="#000000" x1="1630.0" y1="280.0" x2="1900.0" y2="265.0"/>
<line stroke="#000000" x1="1390.0" y1="1161.0" x2="1550.0" y2="870.0"/>
<line stroke="#000000" x1="1210.0" y1="797.0" x2="1550.0" y2="870.0"/>
<line stroke="#000000" x1="1210.0" y1="797.0" x2="1390.0" y2="1161.0"/>
<line stroke="#000000" x1="1940.0" y1="1040.0" x2="2310.0" y2="930.0"/>
<line stroke="#000000" x1="2210.0" y1="660.0" x2="2310.0" y2="930.0"/>
<line stroke="#000000" x1="2210.0" y1="660.0" x2="2009.0" y2="700.0"/>
<line stroke="#000000" x1="2125.0" y1="800.0" x2="2009.0" y2="700.0"/>
<line stroke="#000000" x1="2125.0" y1="800.0" x2="1885.0" y2="885.0"/>
<line stroke="#000000" x1="1940.0" y1="1040.0" x2="1885.0" y2="885.0"/>
<line stroke="#000000" x1="2200.0" y1="230.0" x2="2255.0" y2="375.0"/>
<line stroke="#000000" x1="2370.0" y1="330.0" x2="2255.0" y2="375.0"/>
<line stroke="#000000" x1="2370.0" y1="330.0" x2="2443.0" y2="550.0"/>
<line stroke="#000000" x1="2600.0" y1="500.0" x2="2443.0" y2="550.0"/>
<line stroke="#000000" x1="2600.0" y1="500.0" x2="2455.0" y2="152.0"/>
<line stroke="#000000" x1="2960.0" y1="800.0" x2="2770.0" y2="627.0"/>
<line stroke="#000000" x1="2580.0" y1="807.0" x2="2770.0" y2="627.0"/>
<line stroke="#000000" x1="2580.0" y1="807.0" x2="2635.0" y2="1060.0"/>
<line stroke="#000000" x1="2895.0" y1="1060.0" x2="2635.0" y2="1060.0"/>
</g>
</svg>
