<svg xmlns="http://www.w3.org/2000/svg" width="3020.0px" height="1200.0px" viewBox="0.0 -140.0 3020.0 1200.0">
<g>
<line stroke="#000000" x1="45.0" y1="524.0" x2="245.0" y2="330.0"/>
<line stroke="#000000" x1="245.0" y1="330.0" x2="347.0" y2="425.0"/>
<line stroke="#000000" x1="260.0" y1="505.0" x2="347.0" y2="425.0"/>
<line stroke="#000000" x1="260.0" y1="505.0" x2="415.0" y2="665.0"/>
<line stroke="#000000" x1="305.0" y1="775.0" x2="415.0" y2="665.0"/>
<line stroke="#000000" x1="305.0" y1="775.0" x2="45.0" y2="524.0"/>
<line stroke="#000000" x1="740.0" y1="-135.0" x2="515.0" y2="0.0"/>
<line stroke="#000000" x1="610.0" y1="247.0" x2="515.0" y2="0.0"/>
<line stroke="#000000" x1="610.0" y1="247.0" x2="880.0" y2="284.0"/>
<line stroke="#000000" x1="940.0" y1="0.0" x2="880.0" y2="284.0"/>
<line stroke="#000000" x1="850.0" y1="545.0" x2="1130.0" y2="510.0"/>
<line stroke="#000000" x1="1009.0" y1="850.0" x2="1130.0" y2="510.0"/>
<line stroke="#000000" x1="1009.0" y1="850.0" x2="850.0" y2="545.0"/>
<line stroke="#000000" x1="1535.0" y1="573.0" x2="1715.0" y2="375.0"/>
<line stroke="#000000" x1="1935.0" y1="550.0" x2="1715.0" y2="375.0"/>
<line stroke="#000000" x1="1935.0" y1="550.0" x2="1900.0" y2="795.0"/>
<line stroke="#000000" x1="1630.0" y1="780.0" x2="1900.0" y2="795.0"/>
<line stroke="#000000" x1="1390.0" y1="-101.0" x2="1550.0" y2="190.0"/>
<line stroke="#000000" x1="1210.0" y1="263.0" x2="1550.0" y2="190.0"/>
<line stroke="#000000" x1="1210.0" y1="263.0" x2="1390.0" y2="-101.0"/>
<line stroke="#000000" x1="1940.0" y1="20.0" x2="2310.0" y2="130.0"/>
<line stroke="#000000" x1="2210.0" y1="400.0" x2="2310.0" y2="130.0"/>
<line stroke="#000000" x1="2210.0" y1="400.0" x2="2009.0" y2="360.0"/>
<line stroke="#000000" x1="2125.0" y1="260.0" x2="2009.0" y2="360.0"/>
<line stroke="#000000" x1="2125.0" y1="260.0" x2="1885.0" y2="175.0"/>
<line stroke="#000000" x1="1940.0" y1="20.0" x2="1885.0" y2="175.0"/>
<line stroke="#000000" x1="2200.0" y1="830.0" x2="2255.0" y2="685.0"/>
<line stroke="#000000" x1="2370.0" y1="730.0" x2="2255.0" y2="685.0"/>
<line stroke="#000000" x1="2370.0" y1="730.0" x2="2443.0" y2="510.0"/>
<line stroke="#000000" x1="2600.0" y1="560.0" x2="2443.0" y2="510.0"/>
<line stroke="#000000" x1="2600.0" y1="560.0" x2="2455.0" y2="908.0"/>
<line stroke="#000000" x1="2960.0" y1="260.0" x2="2770.0" y2="433.0"/>
<line stroke="#000000" x1="2580.0" y1="253.0" x2="2770.0" y2="433.0"/>
<line stroke="#000000" x1="2580.0" y1="253.0" x2="2635.0" y2="0.0"/>
<line stroke="#000000" x1="2895.0" y1="0.0" x2="2635.0" y2="0.0"/>
</g>
</svg>
