<svg xmlns="http://www.w3.org/2000/svg" width="3020.0px" height="1200.0px" viewBox="0.0 1030.0 3020.0 1200.0">
<g>
<line stroke="#000000" x1="45.0" y1="724.0" x2="245.0" y2="530.0"/>
<line stroke="#000000" x1="245.0" y1="530.0" x2="347.0" y2="625.0"/>
<line stroke="#000000" x1="260.0" y1="705.0" x2="347.0" y2="625.0"/>
<line stroke="#000000" x1="260.0" y1="705.0" x2="415.0" y2="865.0"/>
<line stroke="#000000" x1="305.0" y1="975.0" x2="415.0" y2="865.0"/>
<line stroke="#000000" x1="305.0" y1="975.0" x2="45.0" y2="724.0"/>
<line stroke="#000000" x1="740.0" y1="65.0" x2="515.0" y2="200.0"/>
<line stroke="#000000" x1="610.0" y1="447.0" x2="515.0" y2="200.0"/>
<line stroke="#000000" x1="610.0" y1="447.0" x2="880.0" y2="484.0"/>
<line stroke="#000000" x1="940.0" y1="200.0" x2="880.0" y2="484.0"/>
<line stroke="#000000" x1="850.0" y1="745.0" x2="1130.0" y2="710.0"/>
<line stroke="#000000" x1="1009.0" y1="1050.0" x2="1130.0" y2="710.0"/>
<line stroke="#000000" x1="1009.0" y1="1050.0" x2="850.0" y2="745.0"/>
<line stroke="#000000" x1="1535.0" y1="773.0" x2="1715.0" y2="575.0"/>
<line stroke="#000000" x1="1935.0" y1="750.0" x2="1715.0" y2="575.0"/>
<line stroke="#000000" x1="1935.0" y1="750.0" x2="1900.0" y2="995.0"/>
<line stroke="#000000" x1="1630.0" y1="980.0" x2="1900.0" y2="995.0"/>
<line stroke="#000000" x1="1390.0" y1="99.0" x2="1550.0" y2="390.0"/>
<line stroke="#000000" x1="1210.0" y1="463.0" x2="1550.0" y2="390.0"/>
<line stroke="#000000" x1="1210.0" y1="463.0" x2="1390.0" y2="99.0"/>
<line stroke="#000000" x1="1940.0" y1="220.0" x2="2310.0" y2="330.0"/>
<line stroke="#000000" x1="2210.0" y1="600.0" x2="2310.0" y2="330.0"/>
<line stroke="#000000" x1="2210.0" y1="600.0" x2="2009.0" y2="560.0"/>
<line stroke="#000000" x1="2125.0" y1="460.0" x2="2009.0" y2="560.0"/>
<line stroke="#000000" x1="2125.0" y1="460.0" x2="1885.0" y2="375.0"/>
<line stroke="#000000" x1="1940.0" y1="220.0" x2="1885.0" y2="375.0"/>
<line stroke="#000000" x1="2200.0" y1="1030.0" x2="2255.0" y2="885.0"/>
<line stroke="#000000" x1="2370.0" y1="930.0" x2="2255.0" y2="885.0"/>
<line stroke="#000000" x1="2370.0" y1="930.0" x2="2443.0" y2="710.0"/>
<line stroke="#000000" x1="2600.0" y1="760.0" x2="2443.0" y2="710.0"/>
<line stroke="#000000" x1="2600.0" y1="760.0" x2="2455.0" y2="1108.0"/>
<line stroke="#000000" x1="2960.0" y1="460.0" x2="2770.0" y2="633.0"/>
<line stroke="#000000" x1="2580.0" y1="453.0" x2="2770.0" y2="633.0"/>
<line stroke="#000000" x1="2580.0" y1="453.0" x2="2635.0" y2="200.0"/>
<line stroke="#000000" x1="2895.0" y1="200.0" x2="2635.0" y2="200.0"/>
</g>
</svg>
