<svg xmlns="http://www.w3.org/2000/svg" width="3020.0px" height="1200.0px" viewBox="0.0 1030.0 3020.0 1200.0">
<g>
<line stroke="#000000" x1="45.0" y1="1506.0" x2="245.0" y2="1700.0"/>
<line stroke="#000000" x1="245.0" y1="1700.0" x2="347.0" y2="1605.0"/>
<line stroke="#000000" x1="260.0" y1="1525.0" x2="347.0" y2="1605.0"/>
<line stroke="#000000" x1="260.0" y1="1525.0" x2="415.0" y2="1365.0"/>
<line stroke="#000000" x1="305.0" y1="1255.0" x2="415.0" y2="1365.0"/>
<line stroke="#000000" x1="305.0" y1="1255.0" x2="45.0" y2="1506.0"/>
<line stroke="#000000" x1="740.0" y1="2165.0" x2="515.0" y2="2030.0"/>
<line stroke="#000000" x1="610.0" y1="1783.0" x2="515.0" y2="2030.0"/>
<line stroke="#000000" x1="610.0" y1="1783.0" x2="880.0" y2="1746.0"/>
<line stroke="#000000" x1="940.0" y1="2030.0" x2="880.0" y2="1746.0"/>
<line stroke="#000000" x1="850.0" y1="1485.0" x2="1130.0" y2="1520.0"/>
<line stroke="#000000" x1="1009.0" y1="1180.0" x2="1130.0" y2="1520.0"/>
<line stroke="#000000" x1="1009.0" y1="1180.0" x2="850.0" y2="1485.0"/>
<line stroke="#000000" x1="1535.0" y1="1457.0" x2="1715.0" y2="1655.0"/>
<line stroke="#000000" x1="1935.0" y1="1480.0" x2="1715.0" y2="1655.0"/>
<line stroke="#000000" x1="1935.0" y1="1480.0" x2="1900.0" y2="1235.0"/>
<line stroke="#000000" x1="1630.0" y1="1250.0" x2="1900.0" y2="1235.0"/>
<line stroke="#000000" x1="1390.0" y1="2131.0" x2="1550.0" y2="1840.0"/>
<line stroke="#000000" x1="1210.0" y1="1767.0" x2="1550.0" y2="1840.0"/>
<line stroke="#000000" x1="1210.0" y1="1767.0" x2="1390.0" y2="2131.0"/>
<line stroke="#000000" x1="1940.0" y1="2010.0" x2="2315.0" y2="1900.0"/>
<line stroke="#000000" x1="2215.0" y1="1620.0" x2="2315.0" y2="1900.0"/>
<line stroke="#000000" x1="2215.0" y1="1620.0" x2="2095.0" y2="1670.0"/>
<line stroke="#000000" x1="2130.0" y1="1770.0" x2="2095.0" y2="1670.0"/>
<line stroke="#000000" x1="2130.0" y1="1770.0" x2="1885.0" y2="1855.0"/>
<line stroke="#000000" x1="1940.0" y1="2010.0" x2="1885.0" y2="1855.0"/>
<line stroke="#000000" x1="2200.0" y1="1200.0" x2="2255.0" y2="1345.0"/>
<line stroke="#000000" x1="2370.0" y1="1300.0" x2="2255.0" y2="1345.0"/>
<line stroke="#000000" x1="2370.0" y1="1300.0" x2="2443.0" y2="1520.0"/>
<line stroke="#000000" x1="2600.0" y1="1470.0" x2="2443.0" y2="1520.0"/>
<line stroke="#000000" x1="2600.0" y1="1470.0" x2="2455.0" y2="1122.0"/>
<line stroke="#000000" x1="2960.0" y1="1770.0" x2="2770.0" y2="1597.0"/>
<line stroke="#000000" x1="2580.0" y1="1777.0" x2="2770.0" y2="1597.0"/>
<line stroke="#000000" x1="2580.0" y1="1777.0" x2="2635.0" y2="2030.0"/>
<line stroke="#000000" x1="2895.0" y1="2030.0" x2="2635.0" y2="2030.0"/>
</g>
</svg>
