<svg xmlns="http://www.w3.org/2000/svg" width="1195.0px" height="920.0px" viewBox="0.0 0.0 1195.0 920.0">
<g>
<line stroke="#000000" x1="170.0" y1="483.0" x2="60.0" y2="240.0"/>
<line stroke="#000000" x1="60.0" y1="240.0" x2="398.0" y2="120.0"/>
<line stroke="#000000" x1="398.0" y1="120.0" x2="450.0" y2="243.0"/>
<line stroke="#000000" x1="450.0" y1="243.0" x2="235.0" y2="325.0"/>
<line stroke="#000000" x1="235.0" y1="325.0" x2="281.0" y2="448.0"/>
<line stroke="#000000" x1="281.0" y1="448.0" x2="170.0" y2="483.0"/>
<line stroke="#000000" x1="1070.0" y1="105.0" x2="770.0" y2="318.0"/>
<line stroke="#000000" x1="770.0" y1="318.0" x2="1060.0" y2="404.0"/>
<line stroke="#000000" x1="1070.0" y1="105.0" x2="1060.0" y2="404.0"/>
<line stroke="#000000" x1="730.0" y1="392.0" x2="702.0" y2="437.0"/>
<line stroke="#000000" x1="702.0" y1="437.0" x2="503.0" y2="690.0"/>
<line stroke="#000000" x1="503.0" y1="690.0" x2="342.0" y2="756.0"/>
<line stroke="#000000" x1="342.0" y1="756.0" x2="485.0" y2="572.0"/>
<line stroke="#000000" x1="485.0" y1="572.0" x2="730.0" y2="392.0"/>
<line stroke="#000000" x1="100.0" y1="107.0" x2="168.0" y2="47.0"/>
<line stroke="#000000" x1="168.0" y1="47.0" x2="1140.0" y2="35.0"/>
<line stroke="#000000" x1="1140.0" y1="35.0" x2="1117.0" y2="488.0"/>
<line stroke="#000000" x1="1117.0" y1="488.0" x2="830.0" y2="413.0"/>
<line stroke="#000000" x1="830.0" y1="413.0" x2="690.0" y2="349.0"/>
<line stroke="#000000" x1="690.0" y1="349.0" x2="450.0" y2="327.0"/>
<line stroke="#000000" x1="450.0" y1="327.0" x2="263.0" y2="570.0"/>
<line stroke="#000000" x1="263.0" y1="570.0" x2="531.0" y2="538.0"/>
<line stroke="#000000" x1="531.0" y1="538.0" x2="986.0" y2="754.0"/>
<line stroke="#000000" x1="986.0" y1="754.0" x2="490.0" y2="820.0"/>
</g>
</svg>
